<?xml version="1.0" encoding="UTF-8"?>
<!-- Created with Inkscape (http://www.inkscape.org/) -->
<svg width="89.928mm" height="77.718mm" version="1.1" viewBox="0 0 89.928 77.718" xmlns="http://www.w3.org/2000/svg">
 <defs>
  <marker id="ArrowWide" overflow="visible" markerHeight="2" markerWidth="2" orient="auto-start-reverse" preserveAspectRatio="xMidYMid" viewBox="0 0 1 1">
   <path transform="rotate(180 .125 0)" d="m3-3-3 3 3 3" fill="none" stroke="context-stroke"/>
  </marker>
  <marker id="ArrowWideHeavy" overflow="visible" markerHeight="2" markerWidth="2" orient="auto-start-reverse" preserveAspectRatio="xMidYMid" viewBox="0 0 1 1">
   <path d="m1 0-3 3h-2l3-3-3-3h2z" fill="context-stroke" fill-rule="evenodd"/>
  </marker>
  <marker id="ArrowWideHeavy-9" overflow="visible" markerHeight="2" markerWidth="2" orient="auto-start-reverse" preserveAspectRatio="xMidYMid" viewBox="0 0 1 1">
   <path d="m1 0-3 3h-2l3-3-3-3h2z" fill="context-stroke" fill-rule="evenodd"/>
  </marker>
 </defs>
 <g transform="translate(-21.787 -33.639)">
  <path transform="translate(.25628 16.717)" x="27.832258" y="31.139059" width="35.352703" height="12.936419" ry="3.0431962" d="m30.875 31.139h29.266c1.6859 0 3.0432 1.3573 3.0432 3.0432v6.85c0 1.6859-1.3573 3.0432-3.0432 3.0432h-29.266c-1.6859 0-3.0432-1.3573-3.0432-3.0432v-6.85c0-1.6859 1.3573-3.0432 3.0432-3.0432z" fill="#b8decb" opacity=".47" stroke="#000" stroke-dasharray="0.26499999,0.26499999" stroke-linejoin="round" stroke-width=".265"/>
  <text x="31.440954" y="53.046513" fill="#b8decb" font-family="'Courier New'" font-size="3.175px" opacity=".47" stroke="#000000" stroke-linejoin="round" stroke-width=".265" xml:space="preserve"><tspan x="31.440954" y="53.046513">Frame pointer</tspan><tspan x="31.440954" y="57.015263">saved by caller</tspan></text>
  <g transform="translate(.5739 -40.32)" fill="none" stroke-linejoin="round" stroke-width=".265">
   <text x="76.542145" y="81.43364" font-family="'Courier New'" font-size="3.175px" stroke="#000000" xml:space="preserve"><tspan x="76.542145" y="81.43364" font-family="'Courier New'" stroke-width=".265">Stack pointer</tspan></text>
   <path d="m74.479 80.547h-9.6948" marker-end="url(#ArrowWideHeavy)" stroke="#000"/>
  </g>
  <g transform="translate(0 16.933)">
   <g transform="translate(0 -6.6887)" fill="none" stroke-linejoin="round">
    <path d="m74.335 94.499h-9.6948" marker-end="url(#ArrowWideHeavy-9)" stroke="#000" stroke-width=".265"/>
    <text x="76.296356" y="95.385292" font-family="'Courier New'" font-size="3.175px" stroke="#000000" stroke-width=".265" xml:space="preserve"><tspan x="76.296356" y="95.385292">Frame pointer (X29)</tspan><tspan x="76.296356" y="99.354042"/></text>
   </g>
  </g>
  <g stroke-linejoin="round">
   <path transform="translate(.23481 30.802)" x="27.832258" y="31.139059" width="35.352699" height="21.114515" ry="3.0431962" d="m30.875 31.139h29.266c1.6859 0 3.0432 1.3573 3.0432 3.0432v15.028c0 1.6859-1.3573 3.0432-3.0432 3.0432h-29.266c-1.6859 0-3.0432-1.3573-3.0432-3.0432v-15.028c0-1.6859 1.3573-3.0432 3.0432-3.0432z" fill="#b8decb" opacity=".47" stroke="#000" stroke-dasharray="0.26499999,0.26499999" stroke-width=".265"/>
   <text x="32.405479" y="71.493912" fill="#b8decb" font-family="'Courier New'" font-size="3.175px" opacity=".47" stroke="#000000" stroke-width=".265" xml:space="preserve"><tspan x="32.405479" y="71.493912">Function stack</tspan><tspan x="32.405479" y="75.462662">variables</tspan></text>
   <g>
    <text x="31.102236" y="71.753563" fill="none" font-family="'Courier New'" font-size="3.175px" stroke="#000000" stroke-width=".265" xml:space="preserve"><tspan x="31.102236" y="71.753563" stroke-width=".265"/></text>
    <path transform="translate(.23481 53.065)" x="27.832258" y="31.139059" width="35.352703" height="12.936419" ry="3.0431962" d="m30.875 31.139h29.266c1.6859 0 3.0432 1.3573 3.0432 3.0432v6.85c0 1.6859-1.3573 3.0432-3.0432 3.0432h-29.266c-1.6859 0-3.0432-1.3573-3.0432-3.0432v-6.85c0-1.6859 1.3573-3.0432 3.0432-3.0432z" fill="#b8decb" opacity=".47" stroke="#000" stroke-dasharray="0.26499999,0.26499999" stroke-width=".265"/>
    <text x="28.541372" y="89.491722" fill="none" font-family="'Courier New'" font-size="3.175px" opacity=".47" stroke="#000000" stroke-width=".265" xml:space="preserve"><tspan x="28.541372" y="89.491722">Saved X30 register</tspan><tspan x="28.541372" y="93.460472">(return address)</tspan></text>
   </g>
  </g>
  <g transform="translate(.28695 16.933)" opacity=".47" stroke-linejoin="round" stroke-width=".265">
   <path transform="translate(-.052136 50.216)" x="27.832258" y="31.139059" width="35.352703" height="12.936419" ry="3.0431962" d="m30.875 31.139h29.266c1.6859 0 3.0432 1.3573 3.0432 3.0432v6.85c0 1.6859-1.3573 3.0432-3.0432 3.0432h-29.266c-1.6859 0-3.0432-1.3573-3.0432-3.0432v-6.85c0-1.6859 1.3573-3.0432 3.0432-3.0432z" fill="#b8decb" stroke="#000" stroke-dasharray="0.26499999,0.26499999"/>
   <text x="35.064861" y="86.512878" fill="none" font-family="'Courier New'" font-size="3.175px" stroke="#000000" xml:space="preserve"><tspan x="35.064861" y="86.512878">Saved frame</tspan><tspan x="35.064861" y="90.481628">pointer</tspan></text>
  </g>
  <path d="m26.224 104.9h-4.3043v-50.934h4.3043" fill="none" marker-end="url(#ArrowWide)" opacity=".47" stroke="#000" stroke-dasharray="1.06, 0.264999" stroke-linejoin="round" stroke-width=".265"/>
  <g transform="translate(.30841 -33.38)" stroke-linejoin="round" stroke-width=".265">
   <path transform="translate(-.052136 36.012)" x="27.832258" y="31.139059" width="35.352703" height="12.936419" ry="3.0431962" d="m30.875 31.139h29.266c1.6859 0 3.0432 1.3573 3.0432 3.0432v6.85c0 1.6859-1.3573 3.0432-3.0432 3.0432h-29.266c-1.6859 0-3.0432-1.3573-3.0432-3.0432v-6.85c0-1.6859 1.3573-3.0432 3.0432-3.0432z" fill="#b8decb" stroke="#000"/>
   <text x="31.187576" y="72.439041" fill="none" font-family="'Courier New'" font-size="3.175px" stroke="#000000" xml:space="preserve"><tspan x="31.187576" y="72.439041">Return addres</tspan><tspan x="31.187576" y="76.407791">saved by caller</tspan></text>
  </g>
 </g>
</svg>
