<?xml version="1.0" encoding="UTF-8"?>
<!-- Created with Inkscape (http://www.inkscape.org/) -->
<svg width="88.869mm" height="108.82mm" version="1.1" viewBox="0 0 88.869 108.82" xmlns="http://www.w3.org/2000/svg">
 <defs>
  <marker id="ArrowWideHeavy-9" overflow="visible" markerHeight="2" markerWidth="2" orient="auto-start-reverse" preserveAspectRatio="xMidYMid" viewBox="0 0 1 1">
   <path d="m1 0-3 3h-2l3-3-3-3h2z" fill="context-stroke" fill-rule="evenodd"/>
  </marker>
  <marker id="ArrowWide" overflow="visible" markerHeight="2" markerWidth="2" orient="auto-start-reverse" preserveAspectRatio="xMidYMid" viewBox="0 0 1 1">
   <path transform="rotate(180 .125 0)" d="m3-3-3 3 3 3" fill="none" stroke="context-stroke"/>
  </marker>
  <marker id="ArrowWideHeavy" overflow="visible" markerHeight="2" markerWidth="2" orient="auto-start-reverse" preserveAspectRatio="xMidYMid" viewBox="0 0 1 1">
   <path d="m1 0-3 3h-2l3-3-3-3h2z" fill="context-stroke" fill-rule="evenodd"/>
  </marker>
 </defs>
 <g transform="translate(-22.846 -33.639)" stroke-linejoin="round">
  <path transform="translate(.23481 15.986)" x="26.773924" y="31.139059" width="37.469368" height="95.197914" ry="3.0431962" d="m29.817 31.139h31.383c1.6859 0 3.0432 1.3573 3.0432 3.0432v89.112c0 1.6859-1.3573 3.0432-3.0432 3.0432h-31.383c-1.6859 0-3.0432-1.3573-3.0432-3.0432v-89.112c0-1.6859 1.3573-3.0432 3.0432-3.0432z" fill="#b8decb" opacity=".35336" stroke="#000" stroke-dasharray="0.265, 0.265" stroke-width=".265"/>
  <g transform="translate(-.12201 16.717)" fill="#b8decb" stroke-width=".265">
   <path transform="translate(.37829)" x="27.832258" y="31.139059" width="35.352703" height="12.936419" ry="3.0431962" d="m30.875 31.139h29.266c1.6859 0 3.0432 1.3573 3.0432 3.0432v6.85c0 1.6859-1.3573 3.0432-3.0432 3.0432h-29.266c-1.6859 0-3.0432-1.3573-3.0432-3.0432v-6.85c0-1.6859 1.3573-3.0432 3.0432-3.0432z" stroke="#000"/>
   <text x="31.562967" y="36.329052" font-family="'Courier New'" font-size="3.175px" stroke="#000000" xml:space="preserve"><tspan x="31.562967" y="36.329052">Frame pointer</tspan><tspan x="31.562967" y="40.297802">saved by caller</tspan></text>
  </g>
  <g transform="translate(0 40.407)" fill="none">
   <path d="m74.335 94.499h-9.6948" marker-end="url(#ArrowWideHeavy-9)" stroke="#000" stroke-width=".265"/>
   <text x="76.296356" y="95.385292" font-family="'Courier New'" font-size="3.175px" stroke="#000000" stroke-width=".265" xml:space="preserve"><tspan x="76.296356" y="95.385292">Frame pointer (X29)</tspan><tspan x="76.296356" y="99.354042"/></text>
   <path d="m74.335 56.928h-9.6948" marker-end="url(#ArrowWideHeavy-9)" stroke="#000" stroke-width=".265"/>
  </g>
  <g>
   <path transform="translate(.23481 30.802)" x="27.832258" y="31.139059" width="35.352699" height="51.277039" ry="3.0431962" d="m30.875 31.139h29.266c1.6859 0 3.0432 1.3573 3.0432 3.0432v45.191c0 1.6859-1.3573 3.0432-3.0432 3.0432h-29.266c-1.6859 0-3.0432-1.3573-3.0432-3.0432v-45.191c0-1.6859 1.3573-3.0432 3.0432-3.0432z" fill="#b8decb" stroke="#000" stroke-width=".265"/>
   <text x="29.230476" y="68.318909" fill="#b8decb" font-family="'Courier New'" font-size="3.175px" stroke="#000000" stroke-width=".265" xml:space="preserve"><tspan x="29.230476" y="68.318909">Spilled registers</tspan><tspan x="29.230476" y="72.287659">saved by</tspan><tspan x="29.230476" y="76.256409">preemption handler</tspan></text>
   <text x="31.102236" y="71.753563" fill="none" font-family="'Courier New'" font-size="3.175px" stroke="#000000" stroke-width=".265" xml:space="preserve"><tspan x="31.102236" y="71.753563" stroke-width=".265"/></text>
  </g>
  <g transform="translate(.28695 47.215)" stroke-width=".265">
   <path transform="translate(-.052136 36.012)" x="27.832258" y="31.139059" width="35.352703" height="12.936419" ry="3.0431962" d="m30.875 31.139h29.266c1.6859 0 3.0432 1.3573 3.0432 3.0432v6.85c0 1.6859-1.3573 3.0432-3.0432 3.0432h-29.266c-1.6859 0-3.0432-1.3573-3.0432-3.0432v-6.85c0-1.6859 1.3573-3.0432 3.0432-3.0432z" fill="#b8decb" stroke="#000"/>
   <text x="28.254423" y="72.439041" fill="none" font-family="'Courier New'" font-size="3.175px" stroke="#000000" xml:space="preserve"><tspan x="28.254423" y="72.439041">Saved X30 register</tspan><tspan x="28.254423" y="76.407791">(return address)</tspan></text>
  </g>
  <g transform="translate(.28695 47.096)" stroke-width=".265">
   <path transform="translate(-.052136 50.216)" x="27.832258" y="31.139059" width="35.352703" height="12.936419" ry="3.0431962" d="m30.875 31.139h29.266c1.6859 0 3.0432 1.3573 3.0432 3.0432v6.85c0 1.6859-1.3573 3.0432-3.0432 3.0432h-29.266c-1.6859 0-3.0432-1.3573-3.0432-3.0432v-6.85c0-1.6859 1.3573-3.0432 3.0432-3.0432z" fill="#b8decb" stroke="#000"/>
   <text x="35.064861" y="86.512878" fill="none" font-family="'Courier New'" font-size="3.175px" stroke="#000000" xml:space="preserve"><tspan x="35.064861" y="86.512878">Saved frame</tspan><tspan x="35.064861" y="90.481628">pointer</tspan></text>
  </g>
  <g transform="translate(.30841 -33.38)" fill="#b8decb" stroke-width=".265">
   <path transform="translate(-.052136 36.012)" x="27.832258" y="31.139059" width="35.352703" height="12.936419" ry="3.0431962" d="m30.875 31.139h29.266c1.6859 0 3.0432 1.3573 3.0432 3.0432v6.85c0 1.6859-1.3573 3.0432-3.0432 3.0432h-29.266c-1.6859 0-3.0432-1.3573-3.0432-3.0432v-6.85c0-1.6859 1.3573-3.0432 3.0432-3.0432z" stroke="#000"/>
   <text x="31.187576" y="72.439041" font-family="'Courier New'" font-size="3.175px" stroke="#000000" xml:space="preserve"><tspan x="31.187576" y="72.439041">Return addres</tspan><tspan x="31.187576" y="76.407791">saved by caller</tspan></text>
  </g>
  <path d="m27.282 136.62h-4.3043v-38.763h4.3043" fill="none" marker-end="url(#ArrowWide)" stroke="#000" stroke-dasharray="1.06, 0.264999" stroke-width=".265"/>
  <g stroke-width=".265">
   <path transform="translate(1.8788 59.952)" x="27.832258" y="31.139059" width="32.1777" height="12.936419" ry="3.0431962" d="m30.875 31.139h26.091c1.6859 0 3.0432 1.3573 3.0432 3.0432v6.85c0 1.6859-1.3573 3.0432-3.0432 3.0432h-26.091c-1.6859 0-3.0432-1.3573-3.0432-3.0432v-6.85c0-1.6859 1.3573-3.0432 3.0432-3.0432z" fill="#deb8b8" stroke="#000" stroke-dasharray="0.265, 0.265"/>
   <text x="76.038414" y="92.624596" fill="none" font-family="'Courier New'" font-size="3.175px" stroke="#000000" xml:space="preserve"><tspan x="76.038414" y="92.624596">Frame pointer</tspan><tspan x="76.038414" y="96.593346">address from</tspan><tspan x="76.038414" y="100.5621">Header function,</tspan><tspan x="76.038414" y="104.53085">saved by handler</tspan></text>
   <text x="66.695107" y="55.913445" fill="none" font-family="'Courier New'" font-size="3.175px" stroke="#000000" xml:space="preserve"><tspan x="66.695107" y="55.913445">Preemption handler</tspan><tspan x="66.695107" y="59.882195">call frame,</tspan><tspan x="66.695107" y="63.850945">on goroutine stack</tspan></text>
  </g>
  <g transform="translate(.13151 40.407)" fill="none" stroke-width=".265">
   <text x="76.542145" y="81.43364" font-family="'Courier New'" font-size="3.175px" stroke="#000000" xml:space="preserve"><tspan x="76.542145" y="81.43364" font-family="'Courier New'" stroke-width=".265">Stack pointer</tspan></text>
   <path d="m74.479 80.547h-9.6948" marker-end="url(#ArrowWideHeavy)" stroke="#000"/>
  </g>
 </g>
</svg>
